<svg width="1023" height="741" viewBox="0 0 1023 741" fill="none" xmlns="http://www.w3.org/2000/svg">
<path id="Blob" opacity="0.1" d="M595.189 151.863C530.571 144.807 470.399 119.565 413.166 92.5837C355.932 65.6028 299.441 36.2233 237.101 19.5417C197.005 8.8114 150.57 4.25481 116.203 23.3299C83.1137 41.7255 70.2593 76.6821 62.3091 109.451C56.3234 134.101 51.9421 160.182 61.5003 184.391C68.1279 201.199 81.0346 215.872 89.4912 232.181C118.962 288.744 137.744 340.228 97.5 390.309C78.6355 413.809 32.5978 443.139 17.5 468.5C2.40219 493.861 17.5146 528.249 26.9999 556C36.4113 583.527 15.6994 607.192 44.0583 623.464C101.674 656.524 171.443 669.955 239.775 679.712C390.99 701.314 544.103 708.264 696.815 715.185C753.334 717.741 810.095 720.296 866.211 715.829C897.379 713.345 929.745 708.139 953.484 691.49C983.606 670.36 993.58 631.512 976.735 600.947C948.461 549.669 861.17 530.947 842.742 476.797C832.624 447.002 847.637 415.773 867.473 390.309C910.037 335.701 977.951 290.068 986.234 224.637C991.922 179.688 964.441 132.215 918.347 107.307C870.043 81.1209 800.502 78.795 760.882 113.086C720.058 148.421 652.24 158.086 595.189 151.863Z" fill="#6C63FF"/>
</svg>
