<svg width="1008" height="744" viewBox="0 0 1008 744" fill="none" xmlns="http://www.w3.org/2000/svg">
<g id="Japan House 1">
<path id="Background" opacity="0.1" d="M942.55 473.27C908.55 516.44 921.78 579.52 943.36 630.03C950.58 646.94 958.76 664.84 955.71 682.97C951.98 705.15 932.19 721.37 911.41 729.97C873.53 745.64 828.19 741.9 793.41 720.25C763.33 701.54 741.78 671.1 711.19 653.25C659.99 623.36 594.81 634.65 539.19 655.25C499.85 669.82 456.85 688.76 417.76 673.54C390.26 662.83 371.25 636.75 360.89 609.11C355.89 595.77 352.26 581.32 342.71 570.74C337.03 564.45 329.62 559.99 322.03 556.23C252.72 521.86 165.18 540.23 97.86 502.15C52.39 476.41 23.29 427.85 10.4 377.22C-2.48999 326.59 -0.999997 273.46 2.27 221.32C4.6 184.26 8.77 144.7 32.45 116.1C57.45 85.84 100.45 74.59 139.34 80.34C178.23 86.09 213.41 106.59 244.4 130.73C283.12 160.9 319.04 198.47 366.58 210.73C399 219.02 433 214.46 466.41 212.88C522.24 210.24 578.09 216.11 633.6 222.52C686.75 228.66 740.28 235.43 790.92 252.72C826.75 264.96 855.48 287.17 889.31 302.72C911.36 312.83 935.41 315.63 956.31 328.51C982.03 344.38 1005.61 371.98 999.02 404.28C992.75 434.96 960.57 450.36 942.55 473.27Z" fill="#B2ACF9"/>
<path id="Sun" d="M717 232C779.96 232 831 182.304 831 121C831 59.6964 779.96 10 717 10C654.04 10 603 59.6964 603 121C603 182.304 654.04 232 717 232Z" fill="#FFDF9C"/>
<g id="House">
<path id="Vector" d="M115.33 514.12C115.33 514.12 120.5 520.88 112.95 531.12C105.4 541.36 99.17 549.88 101.68 556.25C101.68 556.25 113.07 537.31 122.35 537.04C131.63 536.77 125.53 525.51 115.33 514.12Z" fill="#B2ACF9"/>
<path id="Vector_2" opacity="0.1" d="M115.33 514.12C115.782 514.773 116.139 515.487 116.39 516.24C125.39 526.87 130.26 536.79 121.56 537.04C113.46 537.27 103.74 551.76 101.41 555.42C101.488 555.702 101.581 555.979 101.69 556.25C101.69 556.25 113.08 537.31 122.36 537.04C131.64 536.77 125.53 525.51 115.33 514.12Z" fill="black"/>
<path id="Vector_3" d="M124.93 522.73C124.93 525.11 124.66 527.04 124.33 527.04C124 527.04 123.73 525.11 123.73 522.73C123.73 520.35 124.06 521.47 124.39 521.47C124.72 521.47 124.93 520.35 124.93 522.73Z" fill="#FFD037"/>
<path id="Vector_4" d="M128.23 525.57C126.14 526.71 124.32 527.4 124.16 527.11C124 526.82 125.57 525.66 127.66 524.53C129.75 523.4 128.92 524.22 129.08 524.53C129.24 524.84 130.32 524.43 128.23 525.57Z" fill="#FFD037"/>
<path id="Vector_5" d="M88 514.12C88 514.12 82.83 520.88 90.38 531.12C97.93 541.36 104.2 549.88 101.68 556.25C101.68 556.25 90.29 537.31 81.01 537.04C71.73 536.77 77.84 525.51 88 514.12Z" fill="#B2ACF9"/>
<path id="Vector_6" opacity="0.1" d="M88 514.12C87.5479 514.773 87.191 515.487 86.94 516.24C77.94 526.87 73.07 536.79 81.77 537.04C89.87 537.27 99.59 551.76 101.92 555.42C101.842 555.702 101.749 555.979 101.64 556.25C101.64 556.25 90.29 537.3 81 537.04C71.71 536.78 77.84 525.51 88 514.12Z" fill="black"/>
<path id="Vector_7" d="M78.43 522.73C78.43 525.11 78.7 527.04 79.03 527.04C79.36 527.04 79.63 525.11 79.63 522.73C79.63 520.35 79.3 521.47 78.97 521.47C78.64 521.47 78.43 520.35 78.43 522.73Z" fill="#FFD037"/>
<path id="Vector_8" d="M75.14 525.57C77.23 526.71 79.05 527.4 79.21 527.11C79.37 526.82 77.8 525.66 75.71 524.53C73.62 523.4 74.45 524.22 74.29 524.53C74.13 524.84 73 524.43 75.14 525.57Z" fill="#FFD037"/>
<path id="Vector_9" d="M80.08 555.36C80.08 555.36 94.53 554.92 98.88 551.81C103.23 548.7 121.1 545.01 122.18 549.98C123.26 554.95 143.89 574.71 127.58 574.84C111.27 574.97 89.69 572.3 85.34 569.65C80.99 567 80.08 555.36 80.08 555.36Z" fill="#A8A8A8"/>
<path id="Vector_10" opacity="0.2" d="M127.87 573.12C111.56 573.25 89.98 570.58 85.63 567.93C82.32 565.93 81 558.68 80.56 555.34H80.08C80.08 555.34 80.99 566.99 85.34 569.64C89.69 572.29 111.27 574.96 127.58 574.83C132.29 574.83 133.91 573.12 133.82 570.64C133.17 572.15 131.37 573.09 127.87 573.12Z" fill="black"/>
<path id="Vector_11" d="M599.11 115.52H401.48V182.2H599.11V115.52Z" fill="#E2E7F0"/>
<path id="Vector_12" opacity="0.4" d="M465.75 118.08H415.5V179.45H465.75V118.08Z" fill="white"/>
<path id="Vector_13" d="M455.61 136.44H426.13V160.12H455.61V136.44Z" fill="#D8E2F0"/>
<path id="Vector_14" opacity="0.4" d="M526.63 118.08H476.38V179.45H526.63V118.08Z" fill="white"/>
<path id="Vector_15" d="M516.49 136.44H487.01V160.12H516.49V136.44Z" fill="#D8E2F0"/>
<path id="Vector_16" opacity="0.4" d="M587.51 118.08H537.26V179.45H587.51V118.08Z" fill="white"/>
<path id="Vector_17" d="M577.37 136.44H547.89V160.12H577.37V136.44Z" fill="#D8E2F0"/>
<path id="Vector_18" opacity="0.1" d="M599.12 115.52V120.52H402.6H401.49V115.52H599.12Z" fill="black"/>
<path id="Vector_19" d="M589.67 77.06L563.36 56.77H435.64L411.38 76.88H411.51C403.78 80.65 387.2 86.88 367.64 82.95C367.64 82.95 368.64 117.75 402.64 117.75H600.4C600.4 117.75 628.82 119.03 632.97 82.95C618.27 85.0742 603.269 83.0336 589.67 77.06V77.06Z" fill="#B2ACF9"/>
<path id="Vector_20" d="M643.65 251.74H364.35V345.98H643.65V251.74Z" fill="#E2E7F0"/>
<path id="Vector_21" opacity="0.4" d="M455.17 247.64H384.15V334.37H455.17V247.64Z" fill="white"/>
<path id="Vector_22" d="M440.83 273.59H399.17V307.05H440.83V273.59Z" fill="#D8E2F0"/>
<path id="Vector_23" opacity="0.4" d="M541.21 247.64H470.19V334.37H541.21V247.64Z" fill="white"/>
<path id="Vector_24" d="M526.88 273.59H485.22V307.05H526.88V273.59Z" fill="#D8E2F0"/>
<path id="Vector_25" opacity="0.4" d="M627.26 247.64H556.24V334.37H627.26V247.64Z" fill="white"/>
<path id="Vector_26" d="M612.92 273.59H571.26V307.05H612.92V273.59Z" fill="#D8E2F0"/>
<path id="Vector_27" d="M677.1 449.77H337.71V568.59H677.1V449.77Z" fill="#B2ACF9"/>
<path id="Vector_28" d="M677.1 449.77H337.71V568.59H677.1V449.77Z" fill="#E2E7F0"/>
<path id="Vector_29" d="M475.65 449.77H373.22V565.86H475.65V449.77Z" fill="#D8E2F0"/>
<path id="Vector_30" opacity="0.4" d="M455.17 449.77H393.71V565.86H455.17V449.77Z" fill="white"/>
<path id="Vector_31" d="M438.1 466.85H407.37V549.48H438.1V466.85Z" fill="#D8E2F0"/>
<path id="Vector_32" d="M640.23 449.77H537.8V565.86H640.23V449.77Z" fill="#D8E2F0"/>
<path id="Vector_33" opacity="0.4" d="M619.75 449.77H558.29V565.86H619.75V449.77Z" fill="white"/>
<path id="Vector_34" d="M602.67 466.85H571.94V549.48H602.67V466.85Z" fill="#D8E2F0"/>
<path id="Vector_35" d="M720.81 563.13V449.78C729.81 449.63 781.01 445.66 789.1 375.34C789.1 375.34 744.79 384.08 696.57 362.78L640.23 319.34H367.08L315.18 362.34H315.46C298.93 370.4 263.46 383.68 221.63 375.34C221.63 375.34 223.55 444.79 289.24 449.51V563.13H720.81ZM289.24 563.13H720.81H289.24ZM696.91 563.13H313.13H696.91ZM313.13 563.13V449.77H696.91V563.13" fill="#B2ACF9"/>
<path id="Vector_36" opacity="0.1" d="M643.65 251.74H364.35V263.84H643.65V251.74Z" fill="black"/>
<path id="Vector_37" d="M636.56 199.56L598.75 168.82H401.37L366.7 199.26H366.9C355.2 204.97 330.12 214.36 300.51 208.44C300.51 208.44 301.96 261.11 353.42 261.11H652.75C652.75 261.11 695.75 263.04 702.04 208.44C702 208.44 670.68 214.63 636.56 199.56Z" fill="#B2ACF9"/>
<path id="Vector_38" opacity="0.1" d="M676.76 449.43H337.37V452.88H676.76V449.43Z" fill="black"/>
<path id="Vector_39" opacity="0.1" d="M315.52 362.71H696.57C696.57 362.71 532 376.53 315.52 362.71Z" fill="black"/>
<path id="Vector_40" opacity="0.1" d="M364 198.81H636.48C636.48 198.81 518.8 212.64 364 198.81Z" fill="black"/>
<path id="Vector_41" opacity="0.1" d="M411.12 76.58H590C590 76.58 512.77 90.41 411.12 76.58Z" fill="black"/>
<path id="Vector_42" d="M1008 562.14H58.29V587.75H1008V562.14Z" fill="#D8E2F0"/>
</g>
</g>
</svg>
