<svg width="854" height="818" viewBox="0 0 854 818" fill="none" xmlns="http://www.w3.org/2000/svg">
<g id="Space 1" clip-path="url(#clip0)">
<g id="space">
<path id="Space" d="M707.501 464.249C599.784 627.243 549.122 818 353.751 818C158.38 818 0 659.62 0 464.249C0 268.878 176.535 192.745 353.751 110.499C929.357 -156.643 948.524 99.543 707.501 464.249Z" fill="#3F3D56"/>
</g>
<g id="Moon">
<path id="Vector" d="M669.522 160.415C706.079 160.415 735.714 130.779 735.714 94.2219C735.714 57.6648 706.079 28.0293 669.522 28.0293C632.965 28.0293 603.329 57.6648 603.329 94.2219C603.329 130.779 632.965 160.415 669.522 160.415Z" fill="#E6E6E6"/>
<path id="Vector_2" d="M663.011 56.2426C667.206 56.2426 670.607 52.8418 670.607 48.6467C670.607 44.4516 667.206 41.0508 663.011 41.0508C658.816 41.0508 655.415 44.4516 655.415 48.6467C655.415 52.8418 658.816 56.2426 663.011 56.2426Z" fill="#CBCBCB"/>
<path id="Vector_3" d="M676.033 132.201C680.228 132.201 683.628 128.8 683.628 124.605C683.628 120.41 680.228 117.01 676.033 117.01C671.838 117.01 668.437 120.41 668.437 124.605C668.437 128.8 671.838 132.201 676.033 132.201Z" fill="#CBCBCB"/>
<path id="Vector_4" d="M705.331 87.7112C708.327 87.7112 710.757 85.282 710.757 82.2855C710.757 79.2891 708.327 76.8599 705.331 76.8599C702.334 76.8599 699.905 79.2891 699.905 82.2855C699.905 85.282 702.334 87.7112 705.331 87.7112Z" fill="#CBCBCB"/>
<path id="Vector_5" d="M643.479 117.01C653.068 117.01 660.841 109.236 660.841 99.6475C660.841 90.0588 653.068 82.2856 643.479 82.2856C633.89 82.2856 626.117 90.0588 626.117 99.6475C626.117 109.236 633.89 117.01 643.479 117.01Z" fill="#CBCBCB"/>
</g>
<g id="Commets">
<path id="Vector_6" opacity="0.8" d="M518.442 405.991L551.413 367.393L584.383 328.794L602.996 307.005C604.025 305.799 602.436 303.918 601.407 305.124L568.436 343.722L535.465 382.321L516.853 404.111C515.823 405.316 517.412 407.197 518.442 405.991V405.991Z" fill="url(#paint0_linear)"/>
<path id="Vector_7" opacity="0.8" d="M459.845 544.887L492.816 506.289L525.786 467.69L544.399 445.901C545.429 444.695 543.84 442.814 542.81 444.02L509.839 482.618L476.869 521.217L458.256 543.006C457.226 544.212 458.816 546.093 459.845 544.887V544.887Z" fill="url(#paint1_linear)"/>
<path id="Vector_8" opacity="0.8" d="M281.923 443.255L314.893 404.657L347.864 366.058L366.476 344.269C367.506 343.063 365.917 341.182 364.887 342.388L331.917 380.986L298.946 419.585L280.334 441.374C279.304 442.58 280.893 444.461 281.923 443.255V443.255Z" fill="url(#paint2_linear)"/>
</g>
<g id="Stars">
<path id="Vector_9" d="M589.224 438.245L585.975 441.473L582.747 438.223L580.581 440.375L583.808 443.625L580.558 446.852L582.71 449.019L585.96 445.791L589.188 449.041L591.354 446.889L588.126 443.639L591.376 440.412L589.224 438.245Z" fill="#B2ACF9"/>
<path id="Vector_10" d="M428.666 398.022L425.417 401.25L422.189 398L420.023 400.152L423.25 403.402L420 406.629L422.152 408.796L425.402 405.568L428.63 408.818L430.796 406.666L427.568 403.416L430.818 400.189L428.666 398.022Z" fill="#B2ACF9"/>
<path id="Vector_11" d="M158.43 544.588L155.18 547.815L151.953 544.565L149.786 546.717L153.014 549.967L149.764 553.194L151.916 555.361L155.165 552.133L158.393 555.383L160.56 553.231L157.332 549.982L160.582 546.754L158.43 544.588Z" fill="#E6E6E6"/>
<path id="Vector_12" d="M184.473 355.776L181.223 359.003L177.996 355.754L175.829 357.905L179.057 361.155L175.807 364.383L177.959 366.549L181.208 363.322L184.436 366.571L186.603 364.42L183.375 361.17L186.625 357.942L184.473 355.776Z" fill="#E6E6E6"/>
<path id="Vector_13" d="M751.993 155.028L748.743 158.255L745.516 155.006L743.349 157.157L746.577 160.407L743.327 163.635L745.479 165.801L748.729 162.574L751.956 165.823L754.123 163.672L750.895 160.422L754.145 157.194L751.993 155.028Z" fill="#E6E6E6"/>
<path id="Vector_14" d="M495.904 245.093L492.654 248.321L489.426 245.071L487.26 247.223L490.487 250.472L487.238 253.7L489.389 255.867L492.639 252.639L495.867 255.889L498.033 253.737L494.806 250.487L498.055 247.26L495.904 245.093Z" fill="#E6E6E6"/>
<path id="Vector_15" d="M288.666 523.022L285.417 526.25L282.189 523L280.023 525.152L283.25 528.402L280 531.629L282.152 533.796L285.402 530.568L288.63 533.818L290.796 531.666L287.568 528.416L290.818 525.189L288.666 523.022Z" fill="#B2ACF9"/>
</g>
<g id="Circles">
<path id="Vector_16" d="M441.646 207.075C447.639 207.075 452.497 202.217 452.497 196.224C452.497 190.231 447.639 185.372 441.646 185.372C435.653 185.372 430.794 190.231 430.794 196.224C430.794 202.217 435.653 207.075 441.646 207.075Z" fill="#B2ACF9"/>
<path id="Vector_17" d="M732.459 235.288C738.452 235.288 743.31 230.43 743.31 224.437C743.31 218.444 738.452 213.586 732.459 213.586C726.466 213.586 721.608 218.444 721.608 224.437C721.608 230.43 726.466 235.288 732.459 235.288Z" fill="#B2ACF9"/>
<path id="Vector_18" d="M603.329 251.565C606.925 251.565 609.84 248.65 609.84 245.054C609.84 241.458 606.925 238.543 603.329 238.543C599.733 238.543 596.818 241.458 596.818 245.054C596.818 248.65 599.733 251.565 603.329 251.565Z" fill="#E6E6E6"/>
<path id="Vector_19" d="M102.002 456.654C105.597 456.654 108.512 453.739 108.512 450.143C108.512 446.547 105.597 443.632 102.002 443.632C98.4059 443.632 95.491 446.547 95.491 450.143C95.491 453.739 98.4059 456.654 102.002 456.654Z" fill="#E6E6E6"/>
<path id="Vector_20" d="M487.221 631.359C490.817 631.359 493.732 628.444 493.732 624.848C493.732 621.252 490.817 618.337 487.221 618.337C483.625 618.337 480.71 621.252 480.71 624.848C480.71 628.444 483.625 631.359 487.221 631.359Z" fill="#E6E6E6"/>
<path id="Vector_21" d="M310.511 644.021C314.107 644.021 317.022 641.107 317.022 637.511C317.022 633.915 314.107 631 310.511 631C306.915 631 304 633.915 304 637.511C304 641.107 306.915 644.021 310.511 644.021Z" fill="#E6E6E6"/>
<path id="Vector_22" d="M286.511 263.021C290.107 263.021 293.022 260.107 293.022 256.511C293.022 252.915 290.107 250 286.511 250C282.915 250 280 252.915 280 256.511C280 260.107 282.915 263.021 286.511 263.021Z" fill="#E6E6E6"/>
<path id="Vector_23" d="M228.851 707.702C234.844 707.702 239.702 702.844 239.702 696.851C239.702 690.858 234.844 686 228.851 686C222.858 686 218 690.858 218 696.851C218 702.844 222.858 707.702 228.851 707.702Z" fill="#B2ACF9"/>
</g>
</g>
<defs>
<linearGradient id="paint0_linear" x1="516.519" y1="355.558" x2="603.329" y2="355.558" gradientUnits="userSpaceOnUse">
<stop stop-color="white"/>
<stop offset="1" stop-color="white" stop-opacity="0.3"/>
</linearGradient>
<linearGradient id="paint1_linear" x1="55258.8" y1="54868.9" x2="62794.7" y2="54868.9" gradientUnits="userSpaceOnUse">
<stop stop-color="white"/>
<stop offset="1" stop-color="white" stop-opacity="0.3"/>
</linearGradient>
<linearGradient id="paint2_linear" x1="280" y1="392.822" x2="366.81" y2="392.822" gradientUnits="userSpaceOnUse">
<stop stop-color="white"/>
<stop offset="1" stop-color="white" stop-opacity="0.3"/>
</linearGradient>
<clipPath id="clip0">
<rect width="853.297" height="818" fill="white"/>
</clipPath>
</defs>
</svg>
